<svg xmlns="http://www.w3.org/2000/svg" width="640" height="640" viewBox="0 0 640 640">
  <defs>
    <linearGradient id="bg" x1="0" y1="0" x2="0" y2="1">
      <stop offset="0%" stop-color="#04100c"/>
      <stop offset="60%" stop-color="#020506"/>
      <stop offset="100%" stop-color="#010203"/>
    </linearGradient>
    <linearGradient id="wave" x1="0" y1="0" x2="1" y2="0">
      <stop offset="0%" stop-color="#1f5f2d"/>
      <stop offset="50%" stop-color="#36af4a"/>
      <stop offset="100%" stop-color="#5eff73"/>
    </linearGradient>
    <filter id="glow" x="-60%" y="-60%" width="220%" height="220%">
      <feGaussianBlur stdDeviation="6" result="b"/>
      <feMerge>
        <feMergeNode in="b"/>
        <feMergeNode in="SourceGraphic"/>
      </feMerge>
    </filter>
  </defs>
  <rect width="640" height="640" fill="url(#bg)"/>
  <path d="M0 470 C120 430 220 520 360 470 C470 430 540 520 640 475 L640 640 L0 640 Z" fill="#0f3118"/>
  <path d="M0 450 C120 410 220 500 360 450 C470 410 540 500 640 455" fill="none" stroke="url(#wave)" stroke-width="20" filter="url(#glow)"/>
  <ellipse cx="330" cy="485" rx="140" ry="32" fill="#122f1b"/>
  <ellipse cx="330" cy="480" rx="138" ry="26" fill="#0d2a16" stroke="#7cff33" stroke-width="6" filter="url(#glow)"/>
  <path d="M274 246 L200 290 L172 372 L252 356 L300 296 Z" fill="#080a10" stroke="#1f2530" stroke-width="5"/>
  <rect x="277" y="226" width="102" height="104" rx="16" fill="#0f1218" stroke="#212733" stroke-width="6"/>
  <rect x="250" y="250" width="30" height="90" rx="12" fill="#0f1218"/>
  <rect x="376" y="250" width="30" height="90" rx="12" fill="#0f1218"/>
  <circle cx="328" cy="188" r="36" fill="#0f1218" stroke="#212733" stroke-width="6"/>
  <circle cx="314" cy="186" r="6" fill="#7cff33" filter="url(#glow)"/>
  <circle cx="342" cy="186" r="6" fill="#7cff33" filter="url(#glow)"/>
  <circle cx="264" cy="338" r="20" fill="#7cff33" fill-opacity="0.45" filter="url(#glow)"/>
  <circle cx="264" cy="338" r="11" fill="#7cff33"/>
  <circle cx="392" cy="338" r="20" fill="#7cff33" fill-opacity="0.45" filter="url(#glow)"/>
  <circle cx="392" cy="338" r="11" fill="#7cff33"/>
  <path d="M305 250 L305 304 L351 250 L351 304" fill="none" stroke="#7cff33" stroke-width="10" stroke-linecap="round" stroke-linejoin="round" filter="url(#glow)"/>
  <text x="20" y="40" fill="#86ff69" font-family="Arial Black, Arial, sans-serif" font-size="24">NXT Wave Rider - replace with official Surge art if available</text>
</svg>
